# xmcd
#
# Track frame offsets: 
#        150
#        30595
#        51745
#        84902
#        109810
#        150777
#        177732
#        214752
#        236682
#
# Disc length: 3536 seconds
#
# Revision: 0
# Processed by: cddbd v1.5.2PL0 Copyright (c) Steve Scherf et al.
# Submitted via: ExactAudioCopy v1.0b1
#
DISCID=720dce09
DTITLE=Pietro Spada, Philharmonia Soloists - Mercadante: Decimini
DYEAR=1994
DGENRE=Classical
TTITLE0=Decimino, no. 1, flute, oboe, bassoon, trumpet, horn, violins 
TTITLE0=(2), viola, double bass   Introduction (Andante) - Allegro
TTITLE1=Decimino, no. 1, flute, oboe, bassoon, trumpet, horn, violins 
TTITLE1=(2), viola, double bass   Minuet (Allegro brilliante) - Trio -
TTITLE1=Da
TTITLE2=Decimino, no. 1, flute, oboe, bassoon, trumpet, horn, violins 
TTITLE2=(2), viola, double bass   Andante
TTITLE3=Decimino, no. 1, flute, oboe, bassoon, trumpet, horn, violins 
TTITLE3=(2), viola, double bass   Finale (Allegro vivace)
TTITLE4=Decimino, no. 2, flute, oboe, bassoon,  violins (2), violas (2
TTITLE4=), cello, double bass, piano   Allegro maestoso - Moderato 
TTITLE5=Decimino, no. 2, flute, oboe, bassoon,  violins (2), violas (2
TTITLE5=), cello, double bass, piano   Minuet (Allegro con brio) - Tri
TTITLE5=o (
TTITLE6=Decimino, no. 2, flute, oboe, bassoon,  violins (2), violas (2
TTITLE6=), cello, double bass, piano   Andante affettuoso 
TTITLE7=Decimino, no. 2, flute, oboe, bassoon,  violins (2), violas (2
TTITLE7=), cello, double bass, piano   Finale (Allegro vivace) 
TTITLE8=La Poesia, cellos (4)
EXTD=
EXTT0=
EXTT1=
EXTT2=
EXTT3=
EXTT4=
EXTT5=
EXTT6=
EXTT7=
EXTT8=
PLAYORDER=
